<svg width="135" height="51" viewBox="0 0 135 51" fill="none" xmlns="http://www.w3.org/2000/svg">
<rect x="0.145294" y="0.5" width="51.7094" height="50" rx="25" fill="white"/>
<rect x="11.7732" y="5.92639" width="8.13953" height="38.7597" rx="3.87597" fill="#ED5B09"/>
<circle cx="29.2151" cy="19.4923" r="13.5659" fill="#ED5B09"/>
<path d="M54.8747 32.5V19.62H61.2147C62.2414 19.62 63.088 19.8267 63.7547 20.24C64.4214 20.64 64.9147 21.1867 65.2347 21.88C65.568 22.5733 65.7347 23.3533 65.7347 24.22C65.7347 25.1 65.548 25.88 65.1747 26.56C64.8014 27.24 64.268 27.7733 63.5747 28.16C62.8947 28.5333 62.0814 28.72 61.1347 28.72H58.0947V32.5H54.8747ZM58.0947 26.24H60.4147C61.0947 26.24 61.6014 26.0533 61.9347 25.68C62.2814 25.3067 62.4547 24.8133 62.4547 24.2C62.4547 23.5333 62.2947 23.02 61.9747 22.66C61.668 22.2867 61.1814 22.1 60.5147 22.1H58.0947V26.24ZM67.0036 32.5V19.62H70.2236V32.5H67.0036ZM72.2575 32.5V19.62H75.0175L80.4975 27.32V19.62H83.7375V32.5H80.9575L75.4775 24.82V32.5H72.2575ZM89.8731 32.7C89.0198 32.7 88.2198 32.6333 87.4731 32.5C86.7398 32.38 86.1065 32.2 85.5731 31.96V29.22C86.1598 29.4733 86.8065 29.68 87.5131 29.84C88.2331 30 88.9131 30.08 89.5531 30.08C90.3531 30.08 90.9465 30.0067 91.3331 29.86C91.7331 29.7133 91.9331 29.3933 91.9331 28.9C91.9331 28.5667 91.8331 28.3 91.6331 28.1C91.4465 27.9 91.1331 27.7267 90.6931 27.58C90.2665 27.42 89.6798 27.2333 88.9331 27.02C88.0531 26.7533 87.3531 26.46 86.8331 26.14C86.3131 25.8067 85.9398 25.4067 85.7131 24.94C85.4865 24.4733 85.3731 23.9 85.3731 23.22C85.3731 21.9933 85.8131 21.0533 86.6931 20.4C87.5731 19.7467 88.8731 19.42 90.5931 19.42C91.3398 19.42 92.0665 19.48 92.7731 19.6C93.4798 19.7067 94.0531 19.8333 94.4931 19.98V22.74C93.9198 22.5133 93.3398 22.3467 92.7531 22.24C92.1798 22.1333 91.6198 22.08 91.0731 22.08C90.3531 22.08 89.7665 22.1467 89.3131 22.28C88.8731 22.4133 88.6531 22.72 88.6531 23.2C88.6531 23.48 88.7331 23.7067 88.8931 23.88C89.0531 24.04 89.3265 24.1867 89.7131 24.32C90.1131 24.4533 90.6531 24.6133 91.3331 24.8C92.3865 25.08 93.1931 25.42 93.7531 25.82C94.3131 26.2067 94.6998 26.66 94.9131 27.18C95.1265 27.6867 95.2331 28.26 95.2331 28.9C95.2331 30.0333 94.7931 30.9533 93.9131 31.66C93.0331 32.3533 91.6865 32.7 89.8731 32.7ZM96.8669 32.5V19.62H100.087V24.72H105.127V19.62H108.347V32.5H105.127V27.4H100.087V32.5H96.8669ZM116.403 32.7C114.309 32.7 112.716 32.1667 111.623 31.1C110.529 30.0333 109.983 28.3733 109.983 26.12C109.983 23.7333 110.529 22.02 111.623 20.98C112.716 19.94 114.309 19.42 116.403 19.42C118.496 19.42 120.089 19.94 121.183 20.98C122.276 22.02 122.823 23.7333 122.823 26.12C122.823 28.3733 122.276 30.0333 121.183 31.1C120.089 32.1667 118.496 32.7 116.403 32.7ZM116.403 29.96C117.483 29.96 118.269 29.6533 118.763 29.04C119.269 28.4133 119.523 27.44 119.523 26.12C119.523 24.68 119.269 23.6667 118.763 23.08C118.269 22.48 117.483 22.18 116.403 22.18C115.309 22.18 114.509 22.48 114.003 23.08C113.509 23.6667 113.263 24.68 113.263 26.12C113.263 27.44 113.509 28.4133 114.003 29.04C114.509 29.6533 115.309 29.96 116.403 29.96ZM127.249 32.5V22.1H123.469V19.62H134.249V22.1H130.469V32.5H127.249Z" fill="#ED5B09"/>
</svg>
